<svg width="66" height="65" viewBox="0 0 66 65" fill="none" xmlns="http://www.w3.org/2000/svg">
<path d="M12.6875 44.6875C14.7188 44.6875 34.1172 44.6875 35.0312 52.8125M24.875 52.8125H38.3828C42.5469 52.8125 50.5703 52.8125 54.6328 56.875C55.4453 57.6875 56.3594 60.9375 52.7031 60.9375H23.4531C19.7969 60.7344 16.1406 60.125 12.6875 58.9063M14.7188 32.5V30.4688C14.7188 18.0782 24.6719 8.12503 37.0625 8.12503C49.4531 8.12503 59.4062 18.0782 59.4062 30.4688V32.5M33.6094 8.2266C32.3906 6.29691 33 3.85941 34.8281 2.64066C36.7578 1.42191 39.1953 2.03128 40.4141 3.85941C41.2266 5.17972 41.2266 7.00785 40.3125 8.32816" stroke="#202020" stroke-width="3.04688" stroke-linecap="round" stroke-linejoin="round"/>
<path d="M10.6562 32.5H63.4688M61.4375 32.5L59.7109 35.9531C59.2031 37.4766 57.7812 38.5938 56.1562 38.5938H17.9688C16.3438 38.4922 15.0234 37.4766 14.4141 35.9531L12.6875 32.5M12.6875 62.9688L2.53125 60.9375V42.6562H12.6875V62.9688Z" stroke="#202020" stroke-width="3.04688" stroke-linecap="round" stroke-linejoin="round"/>
</svg>
